<?xml version="1.0" encoding="UTF-8" standalone="no"?>
<!DOCTYPE svg PUBLIC "-//W3C//DTD SVG 1.1//EN" "http://www.w3.org/Graphics/SVG/1.1/DTD/svg11.dtd">
<svg width="100%" height="100%" viewBox="0 0 3508 2481" version="1.1" xmlns="http://www.w3.org/2000/svg" xmlns:xlink="http://www.w3.org/1999/xlink" xml:space="preserve" xmlns:serif="http://www.serif.com/" style="fill-rule:evenodd;clip-rule:evenodd;stroke-linejoin:round;stroke-miterlimit:2;">
    <g transform="matrix(2.10852,0,0,2.10852,-2065.49,-1264.37)">
        <path d="M1295.72,1233.13C1427.94,1194.6 1589.05,1171.97 1762.81,1171.97C2004.55,1171.97 2221.8,1215.77 2370.89,1285.26C2336.79,1465.41 2231.76,1616.33 2090.1,1699.58C2014.51,1728.98 1928.45,1745.62 1837.19,1745.62C1745.92,1745.62 1659.87,1728.98 1584.28,1699.58C1429.14,1608.4 1317.93,1436.07 1295.72,1233.13Z" style="fill-opacity:0.5;"/>
        <path d="M1252.25,1029.37C1252.25,916.598 1481.03,825.04 1762.81,825.04C2044.6,825.04 2273.37,916.598 2273.37,1029.37L2273.66,1029.37C2264.59,1314.99 2155.95,1560.73 1999.93,1686.45C1929.06,1724.23 1848.38,1745.62 1762.81,1745.62C1677.25,1745.62 1596.56,1724.23 1525.7,1686.45C1369.68,1560.73 1261.04,1314.99 1251.96,1029.37L1252.25,1029.37Z" style="fill:rgb(255,201,0);"/>
        <g transform="matrix(0.982924,0,0,1,38.8253,-3.97904e-13)">
            <path d="M1753.94,825.071C1756.9,825.05 1759.85,825.04 1762.81,825.04C2044.6,825.04 2273.37,916.598 2273.37,1029.37L2273.66,1029.37C2264.59,1314.99 2155.95,1560.73 1999.93,1686.45C1929.06,1724.23 1848.38,1745.62 1762.81,1745.62C1759.85,1745.62 1756.9,1745.6 1753.94,1745.55L1753.94,825.071Z" style="fill:rgb(194,153,0);"/>
        </g>
        <g transform="matrix(1.01912,0,0,1.01912,-33.7057,22.5484)">
            <g transform="matrix(1.37327,0,0,1.37327,-699.358,-527.086)">
                <circle cx="1792.92" cy="1389.81" r="70.031"/>
            </g>
            <g transform="matrix(1,0,0,1,220.646,-56.3938)">
                <path d="M1542.17,1425.63L1629.95,1642.51L1454.38,1642.51L1542.17,1425.63Z"/>
            </g>
        </g>
        <g transform="matrix(1.04113,0,0,0.698642,72.0845,322.869)">
            <ellipse cx="1623.93" cy="1008.39" rx="490.39" ry="292.469" style="fill:white;"/>
        </g>
        <g transform="matrix(0.873316,0,0,0.505539,344.605,543.797)">
            <ellipse cx="1623.93" cy="1008.39" rx="490.39" ry="292.469" style="fill:rgb(83,83,83);"/>
        </g>
        <g transform="matrix(1,0,0,1,8.87493,334.892)">
            <path d="M2006.75,599.361C2041.95,608.269 2073.07,618.988 2098.96,631.121L2040.34,737.409L2040.3,737.409C2031.58,751.195 2001.41,762.227 1971.9,762.227C1942.39,762.227 1924.39,751.195 1930.88,737.409L1930.61,737.409L2006.75,599.361ZM1684.16,572.787L1593.37,737.409L1593.1,737.409C1584.38,751.195 1554.21,762.227 1524.7,762.227C1495.19,762.227 1477.19,751.195 1483.68,737.409L1483.64,737.409L1567.38,585.58C1603.75,579.487 1642.97,575.121 1684.16,572.787Z" style="fill-opacity:0.5;"/>
        </g>
        <path d="M1484.5,1073.3L1484.46,1073.3L1484.46,908.35L1484.46,907.45C1484.96,754.226 1609.49,630 1762.81,630C1916.44,630 2041.16,754.724 2041.16,908.35L2041.16,1073.3L2041.12,1073.3C2040.01,1087.09 2015.92,1098.12 1986.41,1098.12C1956.9,1098.12 1932.82,1087.09 1931.7,1073.3L1931.43,1073.3L1931.43,908.35C1931.43,815.284 1855.88,739.726 1762.81,739.726C1669.75,739.726 1594.19,815.284 1594.19,908.35L1594.19,1073.3L1593.92,1073.3C1592.81,1087.09 1568.72,1098.12 1539.21,1098.12C1509.7,1098.12 1485.62,1087.09 1484.5,1073.3Z" style="fill:rgb(255,201,0);"/>
    </g>
</svg>
