<?xml version="1.0" encoding="UTF-8" standalone="no"?>
<!DOCTYPE svg PUBLIC "-//W3C//DTD SVG 1.1//EN" "http://www.w3.org/Graphics/SVG/1.1/DTD/svg11.dtd">
<svg width="100%" height="100%" viewBox="0 0 3508 2481" version="1.1" xmlns="http://www.w3.org/2000/svg" xmlns:xlink="http://www.w3.org/1999/xlink" xml:space="preserve" xmlns:serif="http://www.serif.com/" style="fill-rule:evenodd;clip-rule:evenodd;stroke-linecap:round;stroke-linejoin:round;stroke-miterlimit:1.5;">
    <g transform="matrix(1,0,0,1,-8.87493,-334.892)">
        <g>
            <g transform="matrix(1.66008,0,0,1.15661,-912.474,356.585)">
                <ellipse cx="1623.93" cy="1008.39" rx="490.39" ry="292.469" style="fill-opacity:0.5;"/>
            </g>
            <g transform="matrix(1.65892,0,0,1.14802,-931.163,352.967)">
                <ellipse cx="1623.93" cy="1008.39" rx="490.39" ry="292.469" style="fill:white;"/>
            </g>
            <g transform="matrix(1.32774,0,0,0.910884,-393.352,648.024)">
                <ellipse cx="1623.93" cy="1008.39" rx="490.39" ry="292.469" style="fill:none;stroke:black;stroke-opacity:0.5;stroke-width:3.66px;"/>
            </g>
            <g transform="matrix(0.996128,0,0,0.673292,145.166,933.83)">
                <ellipse cx="1623.93" cy="1008.39" rx="490.39" ry="292.469" style="fill:none;stroke:black;stroke-opacity:0.5;stroke-width:4.9px;"/>
            </g>
            <g transform="matrix(0.710758,0,0,0.473859,608.589,1169.93)">
                <ellipse cx="1623.93" cy="1008.39" rx="490.39" ry="292.469" style="fill:none;stroke:black;stroke-opacity:0.5;stroke-width:6.9px;"/>
            </g>
        </g>
        <g>
            <g transform="matrix(1,0,0,1,8.87493,334.892)">
                <path d="M1755.12,838.37C1995.87,846.22 2210.23,889.377 2362.02,954.123C2323.52,1140.23 2204.94,1296.15 2045.02,1382.17C1959.69,1412.54 1862.54,1429.73 1759.5,1429.73C1758.04,1429.73 1756.58,1429.73 1755.12,1429.72L1755.12,838.37Z" style="fill-opacity:0.5;"/>
            </g>
            <g transform="matrix(1,0,0,1,0,19)">
                <path d="M1252.25,1029.37C1252.25,916.598 1481.03,825.04 1762.81,825.04C2044.6,825.04 2273.37,916.598 2273.37,1029.37L2273.66,1029.37C2264.59,1314.99 2155.95,1560.73 1999.93,1686.45C1929.06,1724.23 1848.38,1745.62 1762.81,1745.62C1677.25,1745.62 1596.56,1724.23 1525.7,1686.45C1369.68,1560.73 1261.04,1314.99 1251.96,1029.37L1252.25,1029.37Z" style="fill:rgb(255,201,0);"/>
            </g>
            <g transform="matrix(0.982924,0,0,1,38.8253,19)">
                <path d="M1753.94,825.071C1756.9,825.05 1759.85,825.04 1762.81,825.04C2044.6,825.04 2273.37,916.598 2273.37,1029.37L2273.66,1029.37C2264.59,1314.99 2155.95,1560.73 1999.93,1686.45C1929.06,1724.23 1848.38,1745.62 1762.81,1745.62C1759.85,1745.62 1756.9,1745.6 1753.94,1745.55L1753.94,825.071Z" style="fill:rgb(194,153,0);"/>
            </g>
            <g transform="matrix(0.615963,0,0,0.615963,676.985,570.37)">
                <g transform="matrix(1.37327,0,0,1.37327,-699.358,-527.086)">
                    <circle cx="1792.92" cy="1389.81" r="70.031"/>
                </g>
                <g transform="matrix(1,0,0,1,220.646,-56.3938)">
                    <path d="M1542.17,1425.63L1629.95,1642.51L1454.38,1642.51L1542.17,1425.63Z"/>
                </g>
            </g>
            <g transform="matrix(1.04113,0,0,0.698642,72.0845,340.869)">
                <ellipse cx="1623.93" cy="1008.39" rx="490.39" ry="292.469" style="fill:white;"/>
            </g>
            <g transform="matrix(0.873316,0,0,0.505539,344.605,562.797)">
                <ellipse cx="1623.93" cy="1008.39" rx="490.39" ry="292.469" style="fill:rgb(83,83,83);"/>
            </g>
            <g transform="matrix(1,0,0,1,8.87493,353.892)">
                <path d="M2006.75,599.361C2041.95,608.269 2073.07,618.988 2098.96,631.121L2040.34,737.409L2040.3,737.409C2031.58,751.195 2001.41,762.227 1971.9,762.227C1942.39,762.227 1924.39,751.195 1930.88,737.409L1930.61,737.409L2006.75,599.361ZM1684.16,572.787L1593.37,737.409L1593.1,737.409C1584.38,751.195 1554.21,762.227 1524.7,762.227C1495.19,762.227 1477.19,751.195 1483.68,737.409L1483.64,737.409L1567.38,585.58C1603.75,579.487 1642.97,575.121 1684.16,572.787Z" style="fill-opacity:0.5;"/>
            </g>
            <g transform="matrix(1,0,0,1,0,19)">
                <path d="M1484.5,1073.3L1484.46,1073.3L1484.46,908.35L1484.46,907.45C1484.96,754.226 1609.49,630 1762.81,630C1916.44,630 2041.16,754.724 2041.16,908.35L2041.16,1073.3L2041.12,1073.3C2040.01,1087.09 2015.92,1098.12 1986.41,1098.12C1956.9,1098.12 1932.82,1087.09 1931.7,1073.3L1931.43,1073.3L1931.43,908.35C1931.43,815.284 1855.88,739.726 1762.81,739.726C1669.75,739.726 1594.19,815.284 1594.19,908.35L1594.19,1073.3L1593.92,1073.3C1592.81,1087.09 1568.72,1098.12 1539.21,1098.12C1509.7,1098.12 1485.62,1087.09 1484.5,1073.3Z" style="fill:rgb(255,201,0);"/>
            </g>
        </g>
    </g>
    <g transform="matrix(1,0,0,1,-804.014,122.991)">
        <g transform="matrix(566.471,0,0,566.471,999.05,2066.64)">
            <path d="M0.48,-0.016L0.313,-0.016L0.313,-0.039L0.324,-0.039C0.34,-0.039 0.349,-0.044 0.352,-0.055C0.354,-0.065 0.35,-0.079 0.34,-0.097L0.207,-0.382L0.145,-0.293L0.145,-0.07C0.145,-0.06 0.148,-0.052 0.154,-0.047C0.161,-0.042 0.169,-0.039 0.18,-0.039L0.203,-0.039L0.203,-0.016L0.023,-0.016L0.023,-0.039L0.047,-0.039C0.06,-0.039 0.069,-0.042 0.074,-0.047C0.079,-0.052 0.082,-0.06 0.082,-0.07L0.082,-0.629C0.082,-0.639 0.079,-0.647 0.074,-0.652C0.069,-0.658 0.06,-0.66 0.047,-0.66L0.023,-0.66L0.023,-0.684L0.203,-0.684L0.203,-0.66L0.18,-0.66C0.169,-0.66 0.161,-0.658 0.154,-0.652C0.148,-0.647 0.145,-0.64 0.145,-0.629L0.145,-0.347L0.328,-0.605C0.341,-0.624 0.345,-0.637 0.34,-0.646C0.335,-0.656 0.323,-0.66 0.305,-0.66L0.289,-0.66L0.289,-0.684L0.457,-0.684L0.457,-0.66L0.449,-0.66C0.436,-0.66 0.423,-0.656 0.41,-0.648C0.397,-0.641 0.384,-0.629 0.371,-0.613L0.246,-0.441L0.414,-0.082C0.422,-0.066 0.43,-0.055 0.439,-0.049C0.449,-0.042 0.456,-0.039 0.461,-0.039L0.48,-0.039L0.48,-0.016Z" style="fill:rgb(83,83,83);fill-rule:nonzero;"/>
        </g>
        <g transform="matrix(566.471,0,0,566.471,1282.29,2066.64)">
            <path d="M0.109,-0.352C0.109,-0.24 0.123,-0.158 0.15,-0.107C0.178,-0.057 0.212,-0.031 0.254,-0.031C0.298,-0.031 0.333,-0.055 0.359,-0.104C0.385,-0.152 0.398,-0.234 0.398,-0.352C0.398,-0.445 0.387,-0.521 0.365,-0.578C0.343,-0.635 0.306,-0.664 0.254,-0.664C0.21,-0.664 0.174,-0.638 0.148,-0.586C0.122,-0.534 0.109,-0.456 0.109,-0.352ZM0.473,-0.352C0.473,-0.245 0.452,-0.161 0.41,-0.1C0.368,-0.038 0.316,-0.008 0.254,-0.008C0.194,-0.008 0.143,-0.039 0.1,-0.102C0.057,-0.164 0.035,-0.247 0.035,-0.352C0.035,-0.453 0.055,-0.535 0.096,-0.598C0.136,-0.66 0.189,-0.691 0.254,-0.691C0.322,-0.691 0.375,-0.658 0.414,-0.592C0.453,-0.525 0.473,-0.445 0.473,-0.352Z" style="fill:rgb(83,83,83);fill-rule:nonzero;"/>
        </g>
        <g transform="matrix(566.471,0,0,566.471,1565.52,2066.64)">
            <path d="M0.395,-0.167L0.402,-0.167L0.402,-0.629C0.402,-0.639 0.4,-0.647 0.395,-0.652C0.389,-0.658 0.38,-0.66 0.367,-0.66L0.336,-0.66L0.336,-0.684L0.492,-0.684L0.492,-0.66L0.461,-0.66C0.451,-0.66 0.442,-0.658 0.436,-0.652C0.429,-0.647 0.426,-0.639 0.426,-0.629L0.426,-0.016L0.402,-0.016L0.105,-0.6L0.098,-0.6L0.098,-0.07C0.098,-0.06 0.101,-0.052 0.107,-0.047C0.114,-0.042 0.122,-0.039 0.133,-0.039L0.164,-0.039L0.164,-0.016L0.008,-0.016L0.008,-0.039L0.039,-0.039C0.052,-0.039 0.061,-0.042 0.066,-0.047C0.072,-0.052 0.074,-0.06 0.074,-0.07L0.074,-0.629C0.074,-0.639 0.072,-0.647 0.066,-0.652C0.061,-0.658 0.052,-0.66 0.039,-0.66L0.016,-0.66L0.016,-0.684L0.129,-0.684L0.395,-0.167Z" style="fill:rgb(83,83,83);fill-rule:nonzero;"/>
        </g>
        <g transform="matrix(566.471,0,0,566.471,1848.76,2066.64)">
            <path d="M0.211,-0.039L0.211,-0.016L0.023,-0.016L0.023,-0.039L0.051,-0.039C0.064,-0.039 0.073,-0.042 0.078,-0.047C0.083,-0.052 0.086,-0.06 0.086,-0.07L0.086,-0.629C0.086,-0.639 0.083,-0.647 0.078,-0.652C0.073,-0.658 0.064,-0.66 0.051,-0.66L0.027,-0.66L0.027,-0.684L0.434,-0.684L0.48,-0.543L0.461,-0.535C0.44,-0.577 0.415,-0.608 0.387,-0.629C0.358,-0.65 0.327,-0.66 0.293,-0.66L0.184,-0.66C0.173,-0.66 0.165,-0.658 0.158,-0.652C0.152,-0.647 0.148,-0.639 0.148,-0.629L0.148,-0.379L0.277,-0.379C0.303,-0.379 0.322,-0.385 0.334,-0.396C0.346,-0.408 0.352,-0.427 0.352,-0.453L0.352,-0.473L0.375,-0.473L0.375,-0.246L0.352,-0.246L0.352,-0.262C0.352,-0.293 0.346,-0.316 0.334,-0.332C0.322,-0.348 0.303,-0.355 0.277,-0.355L0.148,-0.355L0.148,-0.07C0.148,-0.06 0.152,-0.052 0.158,-0.047C0.165,-0.042 0.173,-0.039 0.184,-0.039L0.211,-0.039Z" style="fill:rgb(83,83,83);fill-rule:nonzero;"/>
        </g>
        <g transform="matrix(566.471,0,0,566.471,2131.99,2066.64)">
            <path d="M0.094,-0.66L0.094,-0.684L0.406,-0.684L0.406,-0.66L0.316,-0.66C0.306,-0.66 0.298,-0.658 0.291,-0.652C0.285,-0.647 0.281,-0.639 0.281,-0.629L0.281,-0.07C0.281,-0.06 0.285,-0.052 0.291,-0.047C0.298,-0.042 0.306,-0.039 0.316,-0.039L0.406,-0.039L0.406,-0.016L0.094,-0.016L0.094,-0.039L0.184,-0.039C0.197,-0.039 0.206,-0.042 0.211,-0.047C0.216,-0.052 0.219,-0.06 0.219,-0.07L0.219,-0.629C0.219,-0.639 0.216,-0.647 0.211,-0.652C0.206,-0.658 0.197,-0.66 0.184,-0.66L0.094,-0.66Z" style="fill:rgb(83,83,83);fill-rule:nonzero;"/>
        </g>
        <g transform="matrix(566.471,0,0,566.471,2415.23,2066.64)">
            <path d="M0.391,-0.355C0.391,-0.467 0.374,-0.546 0.34,-0.592C0.306,-0.637 0.259,-0.66 0.199,-0.66C0.181,-0.66 0.167,-0.658 0.158,-0.652C0.149,-0.647 0.145,-0.639 0.145,-0.629L0.145,-0.07C0.145,-0.06 0.148,-0.052 0.156,-0.047C0.164,-0.042 0.174,-0.039 0.188,-0.039C0.245,-0.039 0.293,-0.061 0.332,-0.104C0.371,-0.146 0.391,-0.23 0.391,-0.355ZM0.082,-0.629C0.082,-0.639 0.079,-0.647 0.074,-0.652C0.069,-0.658 0.06,-0.66 0.047,-0.66L0.023,-0.66L0.023,-0.684L0.199,-0.684C0.28,-0.684 0.344,-0.658 0.393,-0.605C0.441,-0.553 0.465,-0.473 0.465,-0.363C0.465,-0.243 0.441,-0.156 0.395,-0.1C0.348,-0.044 0.279,-0.016 0.188,-0.016L0.02,-0.016L0.02,-0.039L0.047,-0.039C0.06,-0.039 0.069,-0.042 0.074,-0.047C0.079,-0.052 0.082,-0.06 0.082,-0.07L0.082,-0.629Z" style="fill:rgb(83,83,83);fill-rule:nonzero;"/>
        </g>
        <g transform="matrix(566.471,0,0,566.471,2698.46,2066.64)">
            <path d="M0.316,-0.266L0.141,-0.266L0.105,-0.117C0.103,-0.104 0.102,-0.094 0.102,-0.086C0.102,-0.076 0.104,-0.065 0.107,-0.055C0.111,-0.044 0.122,-0.039 0.141,-0.039L0.152,-0.039L0.152,-0.016L0.008,-0.016L0.008,-0.039L0.02,-0.039C0.03,-0.039 0.039,-0.042 0.047,-0.049C0.055,-0.055 0.06,-0.066 0.063,-0.082L0.215,-0.68L0.273,-0.699L0.422,-0.082C0.427,-0.066 0.434,-0.055 0.441,-0.049C0.449,-0.042 0.458,-0.039 0.469,-0.039L0.48,-0.039L0.48,-0.016L0.313,-0.016L0.313,-0.039L0.328,-0.039C0.344,-0.039 0.353,-0.042 0.355,-0.049C0.358,-0.055 0.359,-0.061 0.359,-0.066C0.359,-0.077 0.358,-0.086 0.355,-0.094L0.316,-0.266ZM0.234,-0.613L0.23,-0.613L0.148,-0.289L0.313,-0.289L0.234,-0.613Z" style="fill:rgb(83,83,83);fill-rule:nonzero;"/>
        </g>
        <g transform="matrix(566.471,0,0,566.471,2981.7,2066.64)">
            <path d="M0.395,-0.167L0.402,-0.167L0.402,-0.629C0.402,-0.639 0.4,-0.647 0.395,-0.652C0.389,-0.658 0.38,-0.66 0.367,-0.66L0.336,-0.66L0.336,-0.684L0.492,-0.684L0.492,-0.66L0.461,-0.66C0.451,-0.66 0.442,-0.658 0.436,-0.652C0.429,-0.647 0.426,-0.639 0.426,-0.629L0.426,-0.016L0.402,-0.016L0.105,-0.6L0.098,-0.6L0.098,-0.07C0.098,-0.06 0.101,-0.052 0.107,-0.047C0.114,-0.042 0.122,-0.039 0.133,-0.039L0.164,-0.039L0.164,-0.016L0.008,-0.016L0.008,-0.039L0.039,-0.039C0.052,-0.039 0.061,-0.042 0.066,-0.047C0.072,-0.052 0.074,-0.06 0.074,-0.07L0.074,-0.629C0.074,-0.639 0.072,-0.647 0.066,-0.652C0.061,-0.658 0.052,-0.66 0.039,-0.66L0.016,-0.66L0.016,-0.684L0.129,-0.684L0.395,-0.167Z" style="fill:rgb(83,83,83);fill-rule:nonzero;"/>
        </g>
        <g transform="matrix(566.471,0,0,566.471,3264.93,2066.64)">
            <path d="M0.348,-0.016L0.145,-0.016L0.145,-0.039L0.18,-0.039C0.193,-0.039 0.202,-0.042 0.207,-0.047C0.212,-0.052 0.215,-0.06 0.215,-0.07L0.215,-0.617C0.215,-0.638 0.214,-0.65 0.211,-0.652C0.208,-0.655 0.198,-0.656 0.18,-0.656C0.143,-0.656 0.118,-0.65 0.104,-0.637C0.089,-0.624 0.072,-0.589 0.051,-0.531L0.027,-0.535L0.063,-0.684L0.434,-0.684L0.465,-0.535L0.445,-0.531C0.424,-0.586 0.408,-0.62 0.396,-0.635C0.385,-0.649 0.361,-0.656 0.324,-0.656C0.298,-0.656 0.284,-0.655 0.281,-0.652C0.279,-0.65 0.277,-0.637 0.277,-0.613L0.277,-0.07C0.277,-0.06 0.281,-0.052 0.287,-0.047C0.294,-0.042 0.302,-0.039 0.313,-0.039L0.348,-0.039L0.348,-0.016Z" style="fill:rgb(255,201,0);fill-rule:nonzero;"/>
        </g>
        <g transform="matrix(566.471,0,0,566.471,3548.17,2066.64)">
            <path d="M0.031,-0.66L0.031,-0.684L0.414,-0.684L0.457,-0.551L0.438,-0.543C0.417,-0.582 0.395,-0.611 0.371,-0.631C0.348,-0.65 0.322,-0.66 0.293,-0.66L0.184,-0.66C0.173,-0.66 0.165,-0.658 0.158,-0.652C0.152,-0.647 0.148,-0.639 0.148,-0.629L0.148,-0.387L0.262,-0.387C0.288,-0.387 0.307,-0.393 0.318,-0.406C0.33,-0.419 0.336,-0.439 0.336,-0.465L0.336,-0.488L0.359,-0.488L0.359,-0.258L0.336,-0.258L0.336,-0.273C0.336,-0.302 0.33,-0.324 0.318,-0.34C0.307,-0.355 0.288,-0.363 0.262,-0.363L0.148,-0.363L0.148,-0.07C0.148,-0.06 0.152,-0.052 0.158,-0.047C0.165,-0.042 0.173,-0.039 0.184,-0.039L0.285,-0.039C0.324,-0.039 0.357,-0.05 0.385,-0.072C0.412,-0.094 0.434,-0.129 0.449,-0.176L0.469,-0.168L0.426,-0.016L0.027,-0.016L0.027,-0.039L0.051,-0.039C0.064,-0.039 0.073,-0.042 0.078,-0.047C0.083,-0.052 0.086,-0.06 0.086,-0.07L0.086,-0.629C0.086,-0.639 0.083,-0.647 0.078,-0.652C0.073,-0.658 0.064,-0.66 0.051,-0.66L0.031,-0.66Z" style="fill:rgb(255,201,0);fill-rule:nonzero;"/>
        </g>
        <g transform="matrix(566.471,0,0,566.471,3831.4,2066.64)">
            <path d="M0.316,-0.266L0.141,-0.266L0.105,-0.117C0.103,-0.104 0.102,-0.094 0.102,-0.086C0.102,-0.076 0.104,-0.065 0.107,-0.055C0.111,-0.044 0.122,-0.039 0.141,-0.039L0.152,-0.039L0.152,-0.016L0.008,-0.016L0.008,-0.039L0.02,-0.039C0.03,-0.039 0.039,-0.042 0.047,-0.049C0.055,-0.055 0.06,-0.066 0.063,-0.082L0.215,-0.68L0.273,-0.699L0.422,-0.082C0.427,-0.066 0.434,-0.055 0.441,-0.049C0.449,-0.042 0.458,-0.039 0.469,-0.039L0.48,-0.039L0.48,-0.016L0.313,-0.016L0.313,-0.039L0.328,-0.039C0.344,-0.039 0.353,-0.042 0.355,-0.049C0.358,-0.055 0.359,-0.061 0.359,-0.066C0.359,-0.077 0.358,-0.086 0.355,-0.094L0.316,-0.266ZM0.234,-0.613L0.23,-0.613L0.148,-0.289L0.313,-0.289L0.234,-0.613Z" style="fill:rgb(255,201,0);fill-rule:nonzero;"/>
        </g>
    </g>
</svg>
